<svg xmlns="http://www.w3.org/2000/svg" xmlns:xlink="http://www.w3.org/1999/xlink" width="2152" zoomAndPan="magnify" viewBox="0 0 1614 1076.250012" height="1435" preserveAspectRatio="xMidYMid meet" version="1.2"><defs><clipPath id="08f319374c"><path d="M 345.332031 632.597656 L 483.253906 632.597656 L 483.253906 830.859375 L 345.332031 830.859375 Z M 345.332031 632.597656 "/></clipPath><clipPath id="91ef1b9035"><path d="M 345.332031 829.019531 C 351.925781 829.019531 355.226562 821.957031 355.226562 807.828125 L 355.226562 655.207031 C 355.226562 641.074219 351.925781 634.015625 345.332031 634.015625 L 345.332031 632.597656 L 390.550781 632.597656 L 390.550781 634.015625 C 383.957031 634.015625 380.65625 641.074219 380.65625 655.207031 L 380.65625 826.195312 L 432.378906 826.195312 C 445.941406 826.195312 456.632812 822.199219 464.449219 814.191406 C 472.269531 806.183594 477.59375 793.695312 480.417969 776.742188 L 483.238281 777.019531 L 476.734375 830.433594 L 345.332031 830.433594 Z M 345.332031 829.019531 "/></clipPath><clipPath id="372dc18fb9"><path d="M 582.726562 888.390625 L 606.1875 888.390625 L 606.1875 921.746094 L 582.726562 921.746094 Z M 582.726562 888.390625 "/></clipPath><clipPath id="e4803f04b2"><path d="M 604.792969 908.722656 C 605.636719 909.96875 606.0625 911.300781 606.0625 912.722656 C 606.0625 913.949219 605.765625 915.121094 605.171875 916.226562 C 604.578125 917.332031 603.710938 918.304688 602.585938 919.136719 C 600.269531 920.796875 597.5625 921.617188 594.472656 921.617188 C 592.941406 921.617188 591.492188 921.402344 590.105469 920.976562 C 588.714844 920.550781 587.46875 919.933594 586.375 919.136719 C 584.488281 917.746094 583.347656 916.039062 582.945312 914.019531 L 585.082031 912.820312 C 585.175781 914.648438 586.078125 916.132812 587.765625 917.296875 C 588.632812 917.960938 589.640625 918.460938 590.792969 918.816406 C 591.945312 919.171875 593.179688 919.339844 594.472656 919.339844 C 597.121094 919.339844 599.367188 918.660156 601.183594 917.296875 C 602.941406 916 603.820312 914.480469 603.820312 912.722656 C 603.820312 911.691406 603.5 910.730469 602.84375 909.839844 C 602.191406 908.949219 601.300781 908.175781 600.136719 907.546875 C 599.046875 906.988281 597.085938 906.539062 594.273438 906.207031 C 594.035156 906.167969 593.203125 906.039062 591.765625 905.800781 C 590.328125 905.5625 589.082031 905.207031 588.0625 904.710938 C 586.433594 903.914062 585.164062 902.855469 584.238281 901.550781 C 583.3125 900.246094 582.847656 898.832031 582.847656 897.300781 C 582.847656 896.078125 583.15625 894.925781 583.761719 893.84375 C 584.371094 892.765625 585.246094 891.8125 586.375 890.984375 C 587.46875 890.199219 588.714844 889.59375 590.105469 889.152344 C 591.492188 888.714844 592.953125 888.511719 594.472656 888.511719 C 597.5625 888.511719 600.257812 889.34375 602.585938 890.996094 C 604.507812 892.457031 605.636719 894.140625 605.96875 896.066406 L 603.832031 897.265625 C 603.796875 896.433594 603.558594 895.636719 603.105469 894.878906 C 602.65625 894.117188 602.027344 893.417969 601.195312 892.789062 C 600.304688 892.121094 599.269531 891.625 598.109375 891.269531 C 596.945312 890.910156 595.734375 890.746094 594.472656 890.746094 C 593.214844 890.746094 591.992188 890.921875 590.816406 891.269531 C 589.640625 891.613281 588.621094 892.121094 587.753906 892.789062 C 586.898438 893.417969 586.234375 894.117188 585.769531 894.902344 C 585.308594 895.683594 585.070312 896.480469 585.070312 897.3125 C 585.070312 898.34375 585.449219 899.355469 586.210938 900.363281 C 586.96875 901.371094 587.917969 902.15625 589.046875 902.726562 C 589.75 903.058594 590.507812 903.296875 591.363281 903.449219 C 592.21875 903.605469 593.296875 903.757812 594.617188 903.925781 C 594.855469 903.960938 595.425781 904.042969 596.363281 904.175781 C 597.300781 904.304688 598.179688 904.496094 599.046875 904.722656 C 599.914062 904.945312 600.636719 905.230469 601.230469 905.5625 C 602.75 906.429688 603.9375 907.476562 604.78125 908.722656 "/></clipPath><clipPath id="e08a937a93"><path d="M 582.300781 887.964844 L 606.613281 887.964844 L 606.613281 922.167969 L 582.300781 922.167969 Z M 582.300781 887.964844 "/></clipPath><clipPath id="3cab7bd0b3"><path d="M 605.242188 908.414062 C 606.144531 909.742188 606.609375 911.179688 606.609375 912.722656 L 606.0625 912.722656 L 606.609375 912.722656 C 606.609375 914.042969 606.289062 915.300781 605.648438 916.488281 L 605.171875 916.226562 L 605.660156 916.488281 C 605.019531 917.675781 604.105469 918.707031 602.917969 919.574219 C 600.496094 921.308594 597.679688 922.164062 594.496094 922.164062 L 594.496094 921.617188 L 594.496094 922.164062 C 592.917969 922.164062 591.410156 921.9375 589.960938 921.5 L 590.128906 920.976562 L 589.960938 921.5 C 588.511719 921.046875 587.21875 920.40625 586.066406 919.574219 C 584.085938 918.113281 582.847656 916.296875 582.421875 914.125 L 582.351562 913.734375 L 582.695312 913.542969 L 584.832031 912.34375 L 585.59375 911.917969 L 585.640625 912.796875 C 585.734375 914.421875 586.519531 915.777344 588.085938 916.855469 L 588.109375 916.878906 C 588.917969 917.496094 589.867188 917.972656 590.972656 918.304688 L 590.816406 918.828125 L 590.972656 918.304688 C 592.074219 918.636719 593.25 918.804688 594.496094 918.804688 L 594.496094 919.351562 L 594.496094 918.804688 C 597.050781 918.804688 599.164062 918.152344 600.886719 916.867188 C 602.535156 915.644531 603.296875 914.28125 603.296875 912.734375 L 603.84375 912.734375 L 603.296875 912.734375 C 603.296875 911.832031 603.011719 910.980469 602.429688 910.171875 L 602.871094 909.851562 L 602.429688 910.171875 C 601.835938 909.351562 601.003906 908.640625 599.902344 908.046875 L 600.160156 907.570312 L 599.914062 908.058594 C 598.914062 907.546875 597.050781 907.109375 594.238281 906.773438 L 594.210938 906.773438 C 593.976562 906.738281 593.132812 906.609375 591.695312 906.371094 C 590.210938 906.132812 588.929688 905.753906 587.835938 905.230469 C 586.136719 904.402344 584.785156 903.296875 583.800781 901.894531 L 584.25 901.574219 L 583.8125 901.894531 C 582.800781 900.480469 582.304688 898.960938 582.304688 897.3125 L 582.847656 897.3125 L 582.304688 897.3125 C 582.304688 895.992188 582.636719 894.746094 583.289062 893.582031 C 583.941406 892.429688 584.867188 891.421875 586.042969 890.554688 C 587.195312 889.722656 588.488281 889.082031 589.9375 888.632812 C 591.386719 888.191406 592.90625 887.964844 594.484375 887.964844 L 594.484375 888.511719 L 594.484375 887.964844 C 597.667969 887.964844 600.484375 888.820312 602.90625 890.554688 L 602.929688 890.554688 C 604.933594 892.074219 606.160156 893.878906 606.515625 895.96875 L 606.585938 896.351562 L 606.253906 896.539062 L 604.117188 897.738281 L 603.34375 898.167969 L 603.308594 897.277344 C 603.273438 896.539062 603.070312 895.828125 602.65625 895.136719 C 602.25 894.449219 601.65625 893.796875 600.886719 893.203125 L 601.21875 892.765625 L 600.898438 893.203125 C 600.054688 892.585938 599.09375 892.097656 597.976562 891.765625 C 596.871094 891.433594 595.710938 891.269531 594.507812 891.269531 L 594.507812 890.746094 L 594.507812 891.292969 C 593.296875 891.292969 592.136719 891.457031 591.007812 891.789062 L 590.851562 891.269531 L 591.007812 891.789062 C 589.890625 892.121094 588.929688 892.597656 588.132812 893.214844 C 587.324219 893.808594 586.707031 894.460938 586.292969 895.164062 L 585.828125 894.878906 L 586.292969 895.152344 C 585.878906 895.851562 585.675781 896.5625 585.675781 897.289062 L 585.082031 897.289062 L 585.628906 897.289062 C 585.628906 898.167969 585.960938 899.082031 586.660156 900.019531 L 586.222656 900.351562 L 586.660156 900.019531 C 587.375 900.96875 588.253906 901.691406 589.308594 902.226562 L 589.058594 902.714844 L 589.296875 902.226562 C 589.9375 902.535156 590.664062 902.761719 591.46875 902.90625 C 592.300781 903.046875 593.382812 903.203125 594.699219 903.367188 C 594.734375 903.367188 594.792969 903.378906 594.855469 903.390625 C 594.949219 903.402344 595.054688 903.414062 595.199219 903.4375 C 595.496094 903.484375 595.910156 903.546875 596.445312 903.617188 C 597.394531 903.746094 598.308594 903.9375 599.199219 904.175781 L 599.058594 904.699219 L 599.199219 904.175781 C 600.089844 904.414062 600.863281 904.710938 601.515625 905.066406 C 603.105469 905.957031 604.351562 907.070312 605.253906 908.390625 L 604.804688 908.699219 L 605.253906 908.390625 M 604.351562 909.007812 C 603.558594 907.84375 602.441406 906.847656 600.980469 906.015625 L 601.253906 905.539062 L 600.992188 906.015625 C 600.445312 905.707031 599.757812 905.445312 598.925781 905.21875 C 598.082031 904.996094 597.21875 904.816406 596.304688 904.683594 L 596.386719 904.152344 L 596.316406 904.683594 C 595.792969 904.613281 595.375 904.554688 595.066406 904.507812 C 594.925781 904.484375 594.820312 904.472656 594.722656 904.460938 C 594.664062 904.449219 594.617188 904.449219 594.570312 904.4375 L 594.640625 903.902344 L 594.570312 904.449219 C 593.238281 904.28125 592.148438 904.128906 591.292969 903.972656 L 591.386719 903.4375 L 591.292969 903.972656 C 590.402344 903.820312 589.582031 903.558594 588.832031 903.214844 C 587.632812 902.609375 586.625 901.765625 585.804688 900.695312 C 584.988281 899.613281 584.546875 898.488281 584.546875 897.3125 C 584.546875 896.375 584.808594 895.472656 585.320312 894.617188 C 585.828125 893.761719 586.542969 893.011719 587.457031 892.347656 L 587.777344 892.789062 L 587.445312 892.359375 C 588.371094 891.648438 589.453125 891.113281 590.6875 890.757812 C 591.921875 890.390625 593.179688 890.210938 594.496094 890.210938 C 595.816406 890.210938 597.074219 890.390625 598.285156 890.757812 L 598.132812 891.28125 L 598.285156 890.757812 C 599.496094 891.125 600.589844 891.648438 601.539062 892.359375 C 602.417969 893.023438 603.105469 893.773438 603.59375 894.605469 L 603.117188 894.878906 L 603.59375 894.605469 C 604.082031 895.433594 604.351562 896.3125 604.390625 897.242188 L 603.84375 897.265625 L 603.582031 896.789062 L 605.71875 895.589844 L 605.980469 896.066406 L 605.445312 896.160156 C 605.148438 894.402344 604.117188 892.824219 602.277344 891.433594 L 602.609375 890.996094 L 602.289062 891.433594 C 600.066406 889.855469 597.476562 889.046875 594.496094 889.046875 C 593.027344 889.046875 591.625 889.261719 590.28125 889.664062 L 590.105469 889.152344 L 590.269531 889.675781 C 588.929688 890.09375 587.742188 890.675781 586.695312 891.433594 L 586.375 890.996094 L 586.695312 891.433594 C 585.628906 892.21875 584.808594 893.121094 584.238281 894.128906 L 583.761719 893.855469 L 584.238281 894.128906 C 583.667969 895.125 583.394531 896.183594 583.394531 897.3125 C 583.394531 898.710938 583.824219 900.019531 584.691406 901.242188 C 585.558594 902.464844 586.757812 903.460938 588.3125 904.222656 L 588.074219 904.710938 L 588.3125 904.222656 C 589.273438 904.683594 590.460938 905.042969 591.863281 905.265625 L 591.777344 905.800781 L 591.863281 905.265625 C 593.308594 905.503906 594.140625 905.636719 594.367188 905.660156 L 594.296875 906.195312 L 594.355469 905.648438 C 597.167969 905.980469 599.222656 906.429688 600.410156 907.046875 C 601.632812 907.714844 602.597656 908.519531 603.308594 909.496094 C 604.019531 910.480469 604.378906 911.546875 604.378906 912.699219 C 604.378906 914.671875 603.378906 916.347656 601.515625 917.710938 L 601.195312 917.273438 L 601.515625 917.710938 C 599.578125 919.148438 597.230469 919.859375 594.472656 919.859375 C 593.132812 919.859375 591.851562 919.683594 590.640625 919.3125 C 589.414062 918.945312 588.347656 918.410156 587.433594 917.710938 L 587.765625 917.285156 L 587.457031 917.734375 C 585.652344 916.488281 584.640625 914.851562 584.535156 912.84375 L 585.082031 912.808594 L 585.34375 913.28125 L 583.207031 914.480469 L 582.945312 914.007812 L 583.480469 913.898438 C 583.847656 915.765625 584.902344 917.367188 586.695312 918.683594 L 586.375 919.125 L 586.695312 918.683594 C 587.742188 919.445312 588.929688 920.027344 590.269531 920.441406 C 591.613281 920.859375 593.011719 921.058594 594.484375 921.058594 C 597.464844 921.058594 600.054688 920.265625 602.277344 918.671875 L 602.597656 919.113281 L 602.277344 918.671875 C 603.34375 917.890625 604.152344 916.976562 604.699219 915.941406 C 605.253906 914.910156 605.527344 913.828125 605.527344 912.699219 C 605.527344 911.394531 605.148438 910.160156 604.351562 909.007812 Z M 604.351562 909.007812 "/></clipPath><clipPath id="cd07205f31"><path d="M 505.863281 632.597656 L 551.082031 632.597656 L 551.082031 830.4375 L 505.863281 830.4375 Z M 505.863281 632.597656 "/></clipPath><clipPath id="4a7ab5f74a"><path d="M 505.863281 829.019531 C 512.453125 829.019531 515.757812 821.957031 515.757812 807.828125 L 515.757812 655.207031 C 515.757812 641.074219 512.453125 634.015625 505.863281 634.015625 L 505.863281 632.597656 L 551.082031 632.597656 L 551.082031 634.015625 C 544.476562 634.015625 541.1875 641.074219 541.1875 655.207031 L 541.1875 807.828125 C 541.1875 821.957031 544.476562 829.019531 551.082031 829.019531 L 551.082031 830.433594 L 505.863281 830.433594 Z M 505.863281 829.019531 "/></clipPath><clipPath id="32c4908d80"><path d="M 629.320312 888.851562 L 662.152344 888.851562 L 662.152344 922 L 629.320312 922 Z M 629.320312 888.851562 "/></clipPath><clipPath id="fc4fdf175b"><path d="M 645.734375 891.203125 C 643.179688 891.203125 640.828125 891.84375 638.667969 893.117188 C 636.507812 894.386719 634.796875 896.121094 633.527344 898.292969 C 632.253906 900.464844 631.613281 902.839844 631.613281 905.429688 C 631.613281 908.015625 632.253906 910.390625 633.527344 912.566406 C 634.796875 914.738281 636.519531 916.460938 638.667969 917.742188 C 640.816406 919.023438 643.179688 919.652344 645.734375 919.652344 C 648.285156 919.652344 650.636719 919.011719 652.796875 917.742188 C 654.960938 916.472656 656.65625 914.738281 657.914062 912.566406 C 659.175781 910.390625 659.804688 908.015625 659.804688 905.429688 C 659.804688 902.839844 659.175781 900.464844 657.914062 898.292969 C 656.65625 896.121094 654.949219 894.398438 652.796875 893.117188 C 650.648438 891.832031 648.285156 891.203125 645.734375 891.203125 M 645.734375 921.933594 C 642.789062 921.933594 640.046875 921.199219 637.527344 919.726562 C 635.011719 918.253906 633.015625 916.246094 631.566406 913.707031 C 630.117188 911.164062 629.382812 908.410156 629.382812 905.429688 C 629.382812 902.449219 630.105469 899.683594 631.566406 897.152344 C 633.027344 894.625 635.011719 892.617188 637.527344 891.132812 C 640.046875 889.648438 642.777344 888.921875 645.734375 888.921875 C 648.691406 888.921875 651.421875 889.660156 653.9375 891.132812 C 656.457031 892.605469 658.4375 894.613281 659.898438 897.152344 C 661.359375 899.695312 662.082031 902.449219 662.082031 905.429688 C 662.082031 908.410156 661.359375 911.175781 659.898438 913.707031 C 658.4375 916.234375 656.457031 918.253906 653.9375 919.726562 C 651.421875 921.199219 648.691406 921.933594 645.734375 921.933594 "/></clipPath><clipPath id="8d4a6a7b93"><path d="M 628.785156 888.316406 L 662.6875 888.316406 L 662.6875 922.574219 L 628.785156 922.574219 Z M 628.785156 888.316406 "/></clipPath><clipPath id="3785809eac"><path d="M 645.734375 891.738281 C 643.273438 891.738281 641.019531 892.355469 638.953125 893.578125 L 638.679688 893.117188 L 638.953125 893.589844 C 636.875 894.824219 635.222656 896.476562 634 898.566406 C 632.777344 900.644531 632.160156 902.921875 632.160156 905.417969 L 631.613281 905.417969 L 632.160156 905.417969 C 632.160156 907.910156 632.777344 910.191406 634 912.269531 C 635.222656 914.359375 636.875 916.019531 638.953125 917.242188 C 641.019531 918.46875 643.273438 919.085938 645.734375 919.085938 L 645.734375 919.628906 L 645.734375 919.085938 C 648.191406 919.085938 650.445312 918.46875 652.511719 917.242188 C 654.589844 916.019531 656.230469 914.359375 657.441406 912.269531 L 657.914062 912.542969 L 657.441406 912.269531 C 658.652344 910.179688 659.257812 907.898438 659.257812 905.40625 L 659.804688 905.40625 L 659.257812 905.40625 C 659.257812 902.910156 658.652344 900.632812 657.441406 898.542969 L 657.914062 898.269531 L 657.441406 898.542969 C 656.230469 896.453125 654.589844 894.800781 652.511719 893.566406 L 652.785156 893.089844 L 652.511719 893.566406 C 650.445312 892.355469 648.191406 891.738281 645.734375 891.738281 L 645.734375 891.203125 L 645.734375 891.75 M 645.734375 890.65625 C 648.378906 890.65625 650.828125 891.324219 653.070312 892.640625 C 655.304688 893.96875 657.085938 895.75 658.390625 898.007812 C 659.695312 900.265625 660.351562 902.734375 660.351562 905.417969 C 660.351562 908.101562 659.695312 910.570312 658.390625 912.828125 C 657.085938 915.082031 655.316406 916.875 653.070312 918.195312 L 652.796875 917.71875 L 653.070312 918.195312 C 650.828125 919.523438 648.378906 920.1875 645.734375 920.1875 C 643.085938 920.1875 640.640625 919.523438 638.394531 918.195312 L 638.667969 917.71875 L 638.394531 918.195312 C 636.164062 916.863281 634.382812 915.082031 633.0625 912.828125 L 633.539062 912.554688 L 633.0625 912.828125 C 631.734375 910.570312 631.066406 908.101562 631.066406 905.417969 C 631.066406 902.734375 631.734375 900.265625 633.0625 898.007812 L 633.539062 898.28125 L 633.0625 898.007812 C 634.382812 895.761719 636.164062 893.96875 638.394531 892.640625 C 640.640625 891.324219 643.085938 890.65625 645.734375 890.65625 Z M 645.734375 922.46875 C 642.691406 922.46875 639.855469 921.707031 637.253906 920.175781 L 637.527344 919.703125 L 637.253906 920.175781 C 634.652344 918.65625 632.601562 916.578125 631.09375 913.964844 L 631.566406 913.695312 L 631.09375 913.964844 C 629.582031 911.34375 628.835938 908.492188 628.835938 905.417969 L 629.382812 905.417969 L 628.835938 905.417969 C 628.835938 902.339844 629.582031 899.492188 631.09375 896.867188 C 632.601562 894.253906 634.652344 892.175781 637.253906 890.65625 L 637.527344 891.132812 L 637.253906 890.65625 C 639.867188 889.125 642.691406 888.367188 645.734375 888.367188 L 645.734375 888.910156 L 645.734375 888.367188 C 648.773438 888.367188 651.609375 889.125 654.210938 890.65625 C 656.8125 892.175781 658.867188 894.253906 660.375 896.867188 C 661.882812 899.492188 662.628906 902.339844 662.628906 905.417969 L 662.082031 905.417969 L 662.628906 905.417969 C 662.628906 908.492188 661.882812 911.34375 660.375 913.964844 L 659.898438 913.695312 L 660.375 913.964844 C 658.867188 916.578125 656.8125 918.65625 654.210938 920.175781 C 651.609375 921.695312 648.773438 922.46875 645.734375 922.46875 L 645.734375 921.921875 L 645.734375 922.46875 M 645.734375 921.375 C 648.582031 921.375 651.230469 920.664062 653.664062 919.238281 L 653.9375 919.714844 L 653.664062 919.238281 C 656.097656 917.8125 658.023438 915.878906 659.4375 913.421875 C 660.847656 910.972656 661.550781 908.300781 661.550781 905.417969 C 661.550781 902.53125 660.847656 899.859375 659.4375 897.414062 L 659.910156 897.140625 L 659.4375 897.414062 C 658.023438 894.957031 656.097656 893.019531 653.664062 891.59375 L 653.9375 891.121094 L 653.664062 891.59375 C 651.230469 890.171875 648.59375 889.457031 645.734375 889.457031 C 642.871094 889.457031 640.234375 890.171875 637.800781 891.59375 C 635.367188 893.019531 633.441406 894.957031 632.03125 897.414062 L 631.554688 897.140625 L 632.03125 897.414062 C 630.617188 899.859375 629.917969 902.53125 629.917969 905.417969 C 629.917969 908.300781 630.617188 910.972656 632.03125 913.421875 C 633.441406 915.878906 635.367188 917.8125 637.800781 919.238281 C 640.234375 920.664062 642.871094 921.375 645.734375 921.375 Z M 645.734375 921.375 "/></clipPath><clipPath id="a68229fc3f"><path d="M 685.136719 888.886719 L 709.796875 888.886719 L 709.796875 921.617188 L 685.136719 921.617188 Z M 685.136719 888.886719 "/></clipPath><clipPath id="6d1ecf6e3c"><path d="M 697.4375 921.578125 C 695.8125 921.578125 694.246094 921.257812 692.738281 920.601562 C 691.230469 919.949219 689.898438 919.035156 688.734375 917.847656 C 687.570312 916.71875 686.691406 915.390625 686.074219 913.871094 C 685.457031 912.351562 685.148438 910.734375 685.148438 909.050781 L 685.148438 888.910156 L 687.394531 888.910156 L 687.394531 909.050781 C 687.394531 910.4375 687.65625 911.769531 688.164062 913.027344 C 688.675781 914.285156 689.402344 915.378906 690.328125 916.304688 C 691.289062 917.265625 692.378906 918.003906 693.605469 918.511719 C 694.828125 919.023438 696.109375 919.285156 697.425781 919.285156 C 698.792969 919.285156 700.074219 919.023438 701.308594 918.511719 C 702.546875 918.003906 703.625 917.265625 704.585938 916.304688 C 705.511719 915.378906 706.238281 914.285156 706.75 913.027344 C 707.257812 911.769531 707.519531 910.4375 707.519531 909.050781 L 707.519531 888.910156 L 709.753906 888.910156 L 709.753906 909.050781 C 709.753906 910.734375 709.445312 912.351562 708.839844 913.871094 C 708.234375 915.390625 707.34375 916.71875 706.179688 917.847656 C 705.015625 919.046875 703.695312 919.960938 702.199219 920.601562 C 700.703125 921.242188 699.113281 921.578125 697.425781 921.578125 "/></clipPath><clipPath id="c05704e423"><path d="M 684.550781 888.300781 L 710.382812 888.300781 L 710.382812 922.203125 L 684.550781 922.203125 Z M 684.550781 888.300781 "/></clipPath><clipPath id="5360789701"><path d="M 697.4375 922.121094 C 695.742188 922.121094 694.101562 921.789062 692.523438 921.113281 L 692.738281 920.613281 L 692.523438 921.113281 C 690.945312 920.4375 689.554688 919.476562 688.34375 918.226562 L 688.734375 917.847656 L 688.355469 918.238281 C 687.144531 917.0625 686.207031 915.675781 685.566406 914.070312 L 686.074219 913.871094 L 685.566406 914.070312 C 684.9375 912.480469 684.613281 910.808594 684.613281 909.050781 L 685.160156 909.050781 L 684.613281 909.050781 L 684.613281 888.363281 L 687.941406 888.363281 L 687.941406 909.050781 L 687.394531 909.050781 L 687.941406 909.050781 C 687.941406 910.367188 688.175781 911.625 688.664062 912.824219 L 688.152344 913.027344 L 688.664062 912.824219 C 689.152344 914.023438 689.828125 915.058594 690.707031 915.925781 C 691.621094 916.839844 692.652344 917.539062 693.816406 918.015625 C 694.980469 918.5 696.179688 918.738281 697.4375 918.738281 L 697.4375 919.285156 L 697.4375 918.738281 C 698.734375 918.738281 699.945312 918.5 701.109375 918.015625 C 702.273438 917.527344 703.304688 916.828125 704.207031 915.925781 C 705.085938 915.046875 705.761719 914.011719 706.25 912.824219 L 706.761719 913.027344 L 706.25 912.824219 C 706.738281 911.636719 706.984375 910.378906 706.984375 909.050781 L 707.53125 909.050781 L 706.984375 909.050781 L 706.984375 888.363281 L 710.3125 888.363281 L 710.3125 909.050781 L 709.765625 909.050781 L 710.3125 909.050781 C 710.3125 910.808594 709.988281 912.480469 709.347656 914.070312 L 708.839844 913.871094 L 709.347656 914.070312 C 708.707031 915.664062 707.78125 917.050781 706.558594 918.238281 L 706.179688 917.847656 L 706.570312 918.226562 C 705.371094 919.460938 703.992188 920.425781 702.425781 921.101562 C 700.859375 921.777344 699.195312 922.109375 697.4375 922.109375 L 697.4375 921.566406 L 697.4375 922.109375 M 697.4375 921.019531 C 699.054688 921.019531 700.574219 920.710938 702 920.09375 L 702.210938 920.589844 L 702 920.09375 C 703.421875 919.476562 704.695312 918.597656 705.796875 917.457031 C 706.902344 916.386719 707.746094 915.117188 708.328125 913.667969 C 708.910156 912.207031 709.207031 910.675781 709.207031 909.050781 L 709.207031 888.910156 L 709.753906 888.910156 L 709.753906 889.457031 L 707.53125 889.457031 L 707.53125 888.910156 L 708.078125 888.910156 L 708.078125 909.050781 C 708.078125 910.511719 707.804688 911.910156 707.269531 913.230469 C 706.726562 914.546875 705.964844 915.710938 704.992188 916.683594 L 704.609375 916.292969 L 705.003906 916.671875 C 703.992188 917.683594 702.84375 918.464844 701.546875 919 L 701.332031 918.5 L 701.546875 919 C 700.253906 919.546875 698.886719 919.808594 697.464844 919.808594 C 696.0625 919.808594 694.71875 919.535156 693.425781 919 L 693.640625 918.5 L 693.425781 919 C 692.132812 918.453125 690.980469 917.683594 689.96875 916.671875 L 690.363281 916.292969 L 689.980469 916.683594 C 688.996094 915.699219 688.238281 914.546875 687.703125 913.230469 C 687.167969 911.898438 686.894531 910.511719 686.894531 909.050781 L 686.894531 888.910156 L 687.441406 888.910156 L 687.441406 889.457031 L 685.160156 889.457031 L 685.160156 888.910156 L 685.707031 888.910156 L 685.707031 909.050781 C 685.707031 910.675781 686.003906 912.207031 686.585938 913.667969 C 687.167969 915.117188 688.011719 916.386719 689.117188 917.457031 C 690.230469 918.597656 691.503906 919.476562 692.9375 920.09375 C 694.375 920.710938 695.871094 921.019531 697.414062 921.019531 Z M 697.4375 921.019531 "/></clipPath><clipPath id="78c3d79db5"><path d="M 734.828125 888.910156 L 737.0625 888.910156 L 737.0625 918.988281 L 734.828125 918.988281 Z M 734.828125 918.988281 L 755.214844 918.988281 L 755.214844 921.21875 L 734.828125 921.21875 Z M 734.828125 918.988281 "/></clipPath><clipPath id="a176bc463e"><path d="M 734.28125 888.363281 L 737.609375 888.363281 L 737.609375 889.457031 L 734.28125 889.457031 Z M 736.515625 889.457031 L 737.609375 889.457031 L 737.609375 918.441406 L 736.515625 918.441406 Z M 736.515625 918.441406 L 755.761719 918.441406 L 755.761719 919.535156 L 736.515625 919.535156 Z M 754.671875 919.535156 L 755.761719 919.535156 L 755.761719 920.675781 L 754.671875 920.675781 Z M 734.28125 889.457031 L 735.375 889.457031 L 735.375 920.675781 L 734.28125 920.675781 Z M 734.28125 920.675781 L 755.761719 920.675781 L 755.761719 921.21875 L 734.28125 921.21875 Z M 734.28125 921.21875 L 755.761719 921.21875 L 755.761719 921.765625 L 734.28125 921.765625 Z M 734.28125 921.21875 "/></clipPath><clipPath id="c04a142b7b"><path d="M 568 632 L 750.835938 632 L 750.835938 833.679688 L 568 833.679688 Z M 568 632 "/></clipPath><clipPath id="4c9acef455"><path d="M 581.890625 649.558594 C 579.4375 644.09375 577.273438 640.324219 575.390625 638.25 C 573.503906 636.175781 571.050781 634.769531 568.039062 634.011719 L 568.039062 632.59375 L 615.230469 632.59375 L 615.230469 634.011719 C 611.648438 635.136719 609.574219 637.261719 609.003906 640.375 C 608.4375 643.488281 609.195312 648.144531 611.269531 654.367188 L 670.050781 799.359375 L 723.769531 666.234375 C 727.539062 655.875 728.667969 648.292969 727.160156 643.488281 C 725.65625 638.679688 721.503906 635.527344 714.722656 634.023438 L 714.722656 632.59375 L 750.339844 632.59375 L 750.339844 634.011719 C 746.757812 634.960938 743.925781 636.515625 741.863281 638.679688 C 739.800781 640.84375 737.523438 644.574219 735.082031 649.839844 L 660.738281 833.265625 L 656.222656 833.265625 Z M 581.890625 649.558594 "/></clipPath><clipPath id="28fcc05bb3"><path d="M 719 629.355469 L 901.96875 629.355469 L 901.96875 831 L 719 831 Z M 719 629.355469 "/></clipPath><clipPath id="4be83012c1"><path d="M 835.121094 751.863281 L 799.503906 663.679688 L 763.890625 751.863281 Z M 887.6875 813.476562 C 890.128906 818.945312 892.304688 822.714844 894.191406 824.789062 C 896.078125 826.863281 898.519531 828.28125 901.542969 829.027344 L 901.542969 830.445312 L 854.339844 830.445312 L 854.339844 829.027344 C 857.917969 827.902344 859.992188 825.777344 860.550781 822.664062 C 861.105469 819.550781 860.359375 814.894531 858.285156 808.671875 L 837.09375 756.101562 L 762.195312 756.101562 L 745.808594 796.523438 C 742.039062 807.074219 740.671875 814.753906 741.710938 819.5625 C 742.75 824.371094 746.191406 827.519531 752.023438 829.027344 L 752.023438 830.445312 L 719.242188 830.445312 L 719.242188 829.027344 C 722.820312 828.089844 725.644531 826.535156 727.71875 824.371094 C 729.792969 822.207031 732.042969 818.488281 734.5 813.210938 L 808.84375 629.773438 L 813.359375 629.773438 Z M 887.6875 813.476562 "/></clipPath><clipPath id="74698d48c5"><path d="M 810.058594 888.398438 L 835.242188 888.398438 L 835.242188 920.839844 L 810.058594 920.839844 Z M 810.058594 888.398438 "/></clipPath><clipPath id="8f38ae194c"><path d="M 812.40625 918.589844 L 819.46875 918.589844 C 823.484375 918.589844 826.75 917.175781 829.265625 914.363281 C 830.429688 913.105469 831.308594 911.644531 831.925781 909.957031 C 832.542969 908.269531 832.839844 906.503906 832.839844 904.613281 C 832.839844 902.761719 832.53125 900.992188 831.925781 899.316406 C 831.320312 897.644531 830.429688 896.183594 829.265625 894.925781 C 826.714844 892.171875 823.449219 890.792969 819.46875 890.792969 L 812.40625 890.792969 Z M 819.46875 920.820312 L 810.171875 920.820312 L 810.171875 888.511719 L 819.46875 888.511719 C 821.761719 888.511719 823.875 888.929688 825.835938 889.785156 C 827.792969 890.636719 829.480469 891.824219 830.90625 893.394531 C 832.257812 894.890625 833.304688 896.597656 834.039062 898.511719 C 834.777344 900.421875 835.132812 902.476562 835.132812 904.625 C 835.132812 906.773438 834.765625 908.816406 834.039062 910.742188 C 833.316406 912.664062 832.269531 914.386719 830.90625 915.90625 C 829.480469 917.496094 827.792969 918.71875 825.835938 919.5625 C 823.875 920.40625 821.761719 920.835938 819.46875 920.835938 "/></clipPath><clipPath id="a377600a1d"><path d="M 809.613281 887.953125 L 835.6875 887.953125 L 835.6875 921.433594 L 809.613281 921.433594 Z M 809.613281 887.953125 "/></clipPath><clipPath id="2d9c669c5f"><path d="M 812.40625 918.042969 L 819.46875 918.042969 L 819.46875 918.589844 L 819.46875 918.042969 C 823.339844 918.042969 826.453125 916.691406 828.863281 913.996094 C 829.96875 912.796875 830.820312 911.382812 831.414062 909.78125 L 831.925781 909.96875 L 831.414062 909.78125 C 832.007812 908.164062 832.304688 906.453125 832.304688 904.625 L 832.851562 904.625 L 832.304688 904.625 C 832.304688 902.832031 832.007812 901.136719 831.414062 899.519531 L 831.925781 899.332031 L 831.414062 899.519531 C 830.820312 897.917969 829.980469 896.503906 828.863281 895.304688 L 829.265625 894.9375 L 828.863281 895.304688 C 826.417969 892.667969 823.304688 891.351562 819.46875 891.351562 L 819.46875 890.804688 L 819.46875 891.351562 L 812.40625 891.351562 L 812.40625 890.804688 L 812.953125 890.804688 L 812.953125 918.589844 L 812.40625 918.589844 L 812.40625 918.042969 M 812.40625 919.136719 L 811.859375 919.136719 L 811.859375 890.257812 L 819.46875 890.257812 C 823.589844 890.257812 827 891.695312 829.660156 894.558594 C 830.871094 895.875 831.796875 897.394531 832.425781 899.140625 C 833.066406 900.875 833.375 902.703125 833.375 904.625 C 833.375 906.574219 833.054688 908.425781 832.425781 910.160156 C 831.785156 911.90625 830.859375 913.425781 829.660156 914.742188 L 829.253906 914.375 L 829.660156 914.742188 C 827.035156 917.6875 823.613281 919.148438 819.457031 919.148438 L 812.40625 919.148438 Z M 819.46875 921.367188 L 809.625 921.367188 L 809.625 887.964844 L 819.46875 887.964844 L 819.46875 888.511719 L 819.46875 887.964844 C 821.820312 887.964844 824.019531 888.40625 826.046875 889.273438 C 828.066406 890.152344 829.824219 891.398438 831.308594 893.011719 C 832.710938 894.558594 833.789062 896.324219 834.550781 898.308594 C 835.296875 900.292969 835.679688 902.40625 835.679688 904.613281 L 835.132812 904.613281 L 835.679688 904.613281 C 835.679688 906.835938 835.296875 908.9375 834.550781 910.917969 L 834.039062 910.730469 L 834.550781 910.917969 C 833.800781 912.902344 832.722656 914.683594 831.320312 916.261719 C 829.847656 917.914062 828.089844 919.171875 826.058594 920.050781 C 824.03125 920.929688 821.832031 921.367188 819.480469 921.367188 L 819.480469 920.820312 L 819.480469 921.367188 M 819.480469 920.277344 C 821.703125 920.277344 823.746094 919.871094 825.632812 919.054688 L 825.847656 919.550781 L 825.632812 919.054688 C 827.507812 918.234375 829.136719 917.070312 830.511719 915.539062 L 830.917969 915.90625 L 830.511719 915.539062 C 831.832031 914.066406 832.839844 912.402344 833.542969 910.539062 C 834.242188 908.6875 834.597656 906.703125 834.597656 904.613281 C 834.597656 902.523438 834.242188 900.554688 833.542969 898.6875 L 834.050781 898.5 L 833.542969 898.6875 C 832.839844 896.824219 831.832031 895.1875 830.511719 893.738281 L 830.917969 893.371094 L 830.511719 893.738281 C 829.136719 892.242188 827.507812 891.078125 825.632812 890.269531 L 825.847656 889.769531 L 825.632812 890.269531 C 823.746094 889.449219 821.703125 889.046875 819.480469 889.046875 L 810.171875 889.046875 L 810.171875 888.511719 L 810.71875 888.511719 L 810.71875 920.820312 L 810.171875 920.820312 L 810.171875 920.277344 Z M 819.480469 920.277344 "/></clipPath><clipPath id="79f111e5d7"><path d="M 856 888.105469 L 888.78125 888.105469 L 888.78125 921.292969 L 856 921.292969 Z M 856 888.105469 "/></clipPath><clipPath id="53a0702ee1"><path d="M 872.363281 890.457031 C 869.808594 890.457031 867.457031 891.097656 865.296875 892.367188 C 863.136719 893.640625 861.425781 895.375 860.15625 897.546875 C 858.886719 899.71875 858.246094 902.09375 858.246094 904.683594 C 858.246094 907.269531 858.886719 909.644531 860.15625 911.820312 C 861.425781 913.992188 863.148438 915.714844 865.296875 916.996094 C 867.445312 918.277344 869.808594 918.90625 872.363281 918.90625 C 874.914062 918.90625 877.265625 918.265625 879.429688 916.996094 C 881.589844 915.726562 883.289062 913.992188 884.546875 911.820312 C 885.804688 909.644531 886.433594 907.269531 886.433594 904.683594 C 886.433594 902.09375 885.804688 899.71875 884.546875 897.546875 C 883.289062 895.375 881.578125 893.652344 879.429688 892.367188 C 877.277344 891.085938 874.914062 890.457031 872.363281 890.457031 M 872.363281 921.1875 C 869.417969 921.1875 866.675781 920.453125 864.15625 918.980469 C 861.640625 917.507812 859.644531 915.5 858.195312 912.960938 C 856.75 910.417969 856.011719 907.664062 856.011719 904.683594 C 856.011719 901.703125 856.738281 898.9375 858.195312 896.40625 C 859.65625 893.878906 861.640625 891.871094 864.15625 890.386719 C 866.675781 888.902344 869.40625 888.175781 872.363281 888.175781 C 875.320312 888.175781 878.050781 888.914062 880.566406 890.386719 C 883.085938 891.859375 885.066406 893.867188 886.527344 896.40625 C 887.988281 898.949219 888.714844 901.703125 888.714844 904.683594 C 888.714844 907.664062 887.988281 910.429688 886.527344 912.960938 C 885.066406 915.488281 883.085938 917.507812 880.566406 918.980469 C 878.050781 920.453125 875.320312 921.1875 872.363281 921.1875 "/></clipPath><clipPath id="bdf62f3adf"><path d="M 855.417969 887.570312 L 889.316406 887.570312 L 889.316406 921.828125 L 855.417969 921.828125 Z M 855.417969 887.570312 "/></clipPath><clipPath id="7f16e6fda1"><path d="M 872.363281 890.992188 C 869.90625 890.992188 867.648438 891.609375 865.582031 892.832031 L 865.308594 892.367188 L 865.582031 892.84375 C 863.503906 894.078125 861.855469 895.730469 860.632812 897.820312 C 859.40625 899.898438 858.789062 902.175781 858.789062 904.671875 L 858.246094 904.671875 L 858.789062 904.671875 C 858.789062 907.164062 859.40625 909.445312 860.632812 911.523438 C 861.855469 913.613281 863.503906 915.273438 865.582031 916.496094 C 867.648438 917.71875 869.90625 918.339844 872.363281 918.339844 L 872.363281 918.882812 L 872.363281 918.339844 C 874.820312 918.339844 877.078125 917.71875 879.144531 916.496094 C 881.222656 915.273438 882.859375 913.613281 884.070312 911.523438 L 884.546875 911.796875 L 884.070312 911.523438 C 885.28125 909.433594 885.886719 907.152344 885.886719 904.660156 L 886.433594 904.660156 L 885.886719 904.660156 C 885.886719 902.164062 885.28125 899.886719 884.070312 897.796875 L 884.546875 897.523438 L 884.070312 897.796875 C 882.859375 895.707031 881.222656 894.054688 879.144531 892.820312 L 879.417969 892.34375 L 879.144531 892.820312 C 877.078125 891.609375 874.820312 890.992188 872.363281 890.992188 L 872.363281 890.457031 L 872.363281 891.003906 M 872.363281 889.910156 C 875.011719 889.910156 877.457031 890.574219 879.699219 891.894531 C 881.933594 893.222656 883.714844 895.003906 885.019531 897.261719 C 886.328125 899.515625 886.980469 901.988281 886.980469 904.671875 C 886.980469 907.355469 886.328125 909.824219 885.019531 912.082031 C 883.714844 914.335938 881.945312 916.128906 879.699219 917.449219 L 879.429688 916.972656 L 879.699219 917.449219 C 877.457031 918.777344 875.011719 919.441406 872.363281 919.441406 C 869.714844 919.441406 867.269531 918.777344 865.023438 917.449219 L 865.296875 916.972656 L 865.023438 917.449219 C 862.792969 916.117188 861.011719 914.335938 859.691406 912.082031 L 860.167969 911.808594 L 859.691406 912.082031 C 858.363281 909.824219 857.699219 907.355469 857.699219 904.671875 C 857.699219 901.988281 858.363281 899.515625 859.691406 897.261719 L 860.167969 897.535156 L 859.691406 897.261719 C 861.011719 895.015625 862.792969 893.222656 865.023438 891.894531 C 867.269531 890.574219 869.714844 889.910156 872.363281 889.910156 Z M 872.363281 921.722656 C 869.324219 921.722656 866.484375 920.960938 863.882812 919.429688 L 864.15625 918.957031 L 863.882812 919.429688 C 861.285156 917.910156 859.230469 915.832031 857.722656 913.21875 L 858.195312 912.945312 L 857.722656 913.21875 C 856.214844 910.597656 855.464844 907.746094 855.464844 904.671875 L 856.011719 904.671875 L 855.464844 904.671875 C 855.464844 901.59375 856.214844 898.746094 857.722656 896.121094 C 859.230469 893.507812 861.285156 891.429688 863.882812 889.910156 L 864.15625 890.386719 L 863.882812 889.910156 C 866.496094 888.378906 869.324219 887.621094 872.363281 887.621094 L 872.363281 888.164062 L 872.363281 887.621094 C 875.402344 887.621094 878.242188 888.378906 880.839844 889.910156 C 883.441406 891.429688 885.496094 893.507812 887.003906 896.121094 C 888.511719 898.746094 889.261719 901.59375 889.261719 904.671875 L 888.714844 904.671875 L 889.261719 904.671875 C 889.261719 907.746094 888.511719 910.597656 887.003906 913.21875 L 886.527344 912.945312 L 887.003906 913.21875 C 885.496094 915.832031 883.441406 917.910156 880.839844 919.429688 C 878.242188 920.949219 875.402344 921.722656 872.363281 921.722656 L 872.363281 921.175781 L 872.363281 921.722656 M 872.363281 920.628906 C 875.210938 920.628906 877.859375 919.917969 880.292969 918.492188 L 880.566406 918.96875 L 880.292969 918.492188 C 882.730469 917.066406 884.652344 915.132812 886.066406 912.675781 C 887.480469 910.226562 888.179688 907.554688 888.179688 904.671875 C 888.179688 901.785156 887.480469 899.113281 886.066406 896.667969 L 886.539062 896.394531 L 886.066406 896.667969 C 884.652344 894.210938 882.730469 892.273438 880.292969 890.847656 L 880.566406 890.375 L 880.292969 890.847656 C 877.859375 889.425781 875.222656 888.710938 872.363281 888.710938 C 869.5 888.710938 866.863281 889.425781 864.429688 890.847656 C 861.996094 892.273438 860.074219 894.210938 858.660156 896.667969 L 858.183594 896.394531 L 858.660156 896.667969 C 857.246094 899.113281 856.546875 901.785156 856.546875 904.671875 C 856.546875 907.554688 857.246094 910.226562 858.660156 912.675781 C 860.074219 915.132812 861.996094 917.066406 864.429688 918.492188 C 866.863281 919.917969 869.5 920.628906 872.363281 920.628906 Z M 872.363281 920.628906 "/></clipPath><clipPath id="ab5954ea1c"><path d="M 623 21.640625 L 991 21.640625 L 991 388.730469 L 623 388.730469 Z M 623 21.640625 "/></clipPath><clipPath id="156b9c3ad1"><path d="M 973.554688 120.394531 C 964.839844 100.832031 952.945312 82.695312 938.097656 67.230469 C 922.933594 51.449219 904.890625 38.617188 885.359375 28.792969 C 880.199219 26.195312 874.949219 23.703125 869.507812 21.722656 C 868.179688 21.246094 866.925781 23.277344 868.074219 24.179688 C 883.347656 36.054688 897.253906 49.789062 908.460938 65.625 C 919.257812 80.894531 927.425781 97.898438 932.460938 115.90625 C 937.871094 135.242188 939.847656 155.585938 938.71875 175.625 C 937.621094 195.15625 933.1875 214.492188 925.25 232.378906 C 917.191406 250.492188 905.738281 266.929688 892.042969 281.226562 C 877.867188 296.039062 861.414062 308.675781 842.980469 317.757812 C 825.109375 326.578125 805.597656 331.84375 785.75 333.507812 C 765.777344 335.1875 745.367188 333.59375 725.925781 328.71875 C 708.109375 324.246094 691.160156 316.839844 675.871094 306.679688 C 660.230469 296.285156 646.535156 283.171875 634.832031 268.503906 C 631.757812 264.648438 628.84375 260.691406 626.03125 256.660156 C 626.015625 256.625 625.980469 256.609375 625.945312 256.574219 C 625.835938 256.429688 625.714844 256.308594 625.570312 256.21875 C 625.570312 256.21875 625.554688 256.203125 625.554688 256.203125 C 624.917969 255.8125 624.050781 255.988281 623.59375 256.519531 C 623.574219 256.539062 623.539062 256.554688 623.523438 256.589844 C 623.488281 256.644531 623.46875 256.695312 623.433594 256.75 C 623.238281 257.050781 623.1875 257.421875 623.34375 257.808594 C 630.414062 281.246094 643.175781 303.371094 659.011719 321.964844 C 675.304688 341.089844 695.527344 357.136719 717.953125 368.484375 C 740.910156 380.09375 766.273438 386.671875 791.953125 388.226562 C 819.507812 389.90625 847.308594 384.992188 872.863281 374.667969 C 894.992188 365.726562 915.195312 352.558594 932.320312 335.945312 C 950.363281 318.449219 965.210938 297.488281 975.144531 274.371094 C 985.464844 250.367188 990.644531 224.140625 990.679688 198.019531 C 990.714844 171.136719 984.441406 144.890625 973.535156 120.394531 "/></clipPath><clipPath id="1b1c8f37ee"><path d="M 498 303 L 1115.851562 303 L 1115.851562 559 L 498 559 Z M 498 303 "/></clipPath><clipPath id="6ed5524e6c"><path d="M 1109.589844 305.085938 C 1104.074219 302.222656 1098.011719 303.480469 1093.804688 309.613281 C 1075.179688 336.792969 1056.816406 364.152344 1038.46875 391.53125 C 1037.640625 392.785156 1037.425781 394.941406 1037.796875 396.445312 C 1040.378906 406.871094 1037.496094 415.105469 1028.273438 420.90625 C 1021.34375 425.269531 1014.273438 429.546875 1006.851562 432.976562 C 987.199219 442.078125 967.332031 450.773438 947.464844 459.398438 C 945.964844 460.050781 943.738281 458.992188 941.847656 458.726562 C 942.90625 457.578125 943.773438 455.828125 945.082031 455.351562 C 971.699219 445.648438 997.128906 433.433594 1021.730469 419.472656 C 1024.558594 417.863281 1027.300781 415.9375 1029.597656 413.675781 C 1033.46875 409.875 1035.394531 405.121094 1033.484375 399.75 C 1031.558594 394.289062 1027.175781 390.648438 1021.589844 390.71875 C 1015.953125 390.789062 1009.910156 391.777344 1004.800781 394.039062 C 985.660156 402.542969 966.765625 411.660156 947.875 420.691406 C 934.371094 427.144531 920.214844 430.148438 905.277344 431.386719 C 893.402344 432.355469 881.191406 434.230469 870.074219 438.3125 C 866.980469 439.460938 864.011719 440.71875 861.113281 442.042969 C 840.097656 457.242188 824.933594 479.722656 818.976562 505.792969 C 815.496094 521.042969 812.402344 535.539062 806.960938 549.675781 C 801.496094 535.539062 798.40625 521.042969 794.921875 505.792969 C 788.984375 479.722656 773.804688 457.242188 752.789062 442.042969 C 749.890625 440.71875 746.921875 439.445312 743.828125 438.3125 C 732.730469 434.230469 720.5 432.355469 708.621094 431.386719 C 693.6875 430.148438 679.53125 427.160156 666.027344 420.691406 C 647.117188 411.660156 628.242188 402.542969 609.101562 394.039062 C 603.976562 391.761719 597.949219 390.789062 592.308594 390.71875 C 586.726562 390.648438 582.359375 394.289062 580.414062 399.75 C 578.507812 405.121094 580.433594 409.875 584.304688 413.675781 C 586.617188 415.9375 589.359375 417.882812 592.167969 419.472656 C 616.769531 433.453125 642.203125 445.648438 668.820312 455.351562 C 670.128906 455.828125 670.992188 457.578125 672.054688 458.726562 C 670.164062 458.992188 667.9375 460.035156 666.433594 459.398438 C 646.570312 450.753906 626.722656 442.078125 607.050781 432.976562 C 599.644531 429.546875 592.574219 425.269531 585.648438 420.90625 C 576.4375 415.105469 573.539062 406.871094 576.121094 396.445312 C 576.492188 394.921875 576.296875 392.765625 575.449219 391.53125 C 557.105469 364.152344 538.742188 336.792969 520.113281 309.613281 C 515.90625 303.480469 509.859375 302.222656 504.328125 305.085938 C 499.027344 307.84375 496.535156 313.996094 499.097656 320.65625 C 511.398438 352.613281 523.683594 384.585938 536.65625 416.292969 C 539.554688 423.359375 544.554688 429.847656 549.628906 435.714844 C 551.554688 437.960938 553.5 440.1875 555.441406 442.414062 C 590.261719 481.191406 615.164062 496.511719 621.648438 500.136719 C 633.632812 506.535156 645.808594 512.703125 657.878906 519.011719 C 657.878906 519.011719 657.898438 519.011719 657.898438 519.011719 C 659.648438 519.929688 661.398438 520.851562 663.148438 521.769531 C 678.734375 529.546875 728.398438 551.480469 803.617188 557.683594 C 803.53125 557.859375 803.476562 558.035156 803.390625 558.195312 C 804.589844 558.105469 805.757812 558.019531 806.941406 557.929688 C 808.125 558.019531 809.292969 558.125 810.492188 558.195312 C 810.421875 558.019531 810.351562 557.839844 810.265625 557.683594 C 885.464844 551.480469 935.148438 529.5625 950.734375 521.769531 C 952.484375 520.851562 954.234375 519.929688 955.984375 519.011719 C 968.058594 512.71875 980.234375 506.535156 992.21875 500.136719 C 998.703125 496.511719 1023.605469 481.191406 1058.421875 442.414062 C 1060.367188 440.1875 1062.3125 437.960938 1064.238281 435.714844 C 1069.308594 429.847656 1074.3125 423.378906 1077.210938 416.292969 C 1090.183594 384.601562 1102.464844 352.628906 1114.769531 320.65625 C 1117.332031 314.011719 1114.820312 307.84375 1109.535156 305.085938 "/></clipPath><clipPath id="ffd2a1f49a"><path d="M 910.871094 888.488281 L 935.53125 888.488281 L 935.53125 921.21875 L 910.871094 921.21875 Z M 910.871094 888.488281 "/></clipPath><clipPath id="81cd053819"><path d="M 923.171875 921.179688 C 921.546875 921.179688 919.980469 920.859375 918.472656 920.203125 C 916.964844 919.550781 915.632812 918.636719 914.46875 917.449219 C 913.304688 916.320312 912.425781 914.992188 911.808594 913.472656 C 911.191406 911.953125 910.882812 910.335938 910.882812 908.652344 L 910.882812 888.511719 L 913.128906 888.511719 L 913.128906 908.652344 C 913.128906 910.039062 913.390625 911.371094 913.898438 912.628906 C 914.410156 913.886719 915.132812 914.980469 916.0625 915.90625 C 917.023438 916.867188 918.113281 917.605469 919.339844 918.113281 C 920.5625 918.625 921.84375 918.886719 923.160156 918.886719 C 924.527344 918.886719 925.808594 918.625 927.042969 918.113281 C 928.277344 917.605469 929.359375 916.867188 930.320312 915.90625 C 931.246094 914.980469 931.972656 913.886719 932.484375 912.628906 C 932.992188 911.371094 933.253906 910.039062 933.253906 908.652344 L 933.253906 888.511719 L 935.488281 888.511719 L 935.488281 908.652344 C 935.488281 910.335938 935.179688 911.953125 934.574219 913.472656 C 933.964844 914.992188 933.074219 916.320312 931.914062 917.449219 C 930.75 918.648438 929.429688 919.5625 927.933594 920.203125 C 926.4375 920.847656 924.847656 921.179688 923.160156 921.179688 "/></clipPath><clipPath id="916c76cec6"><path d="M 910.285156 887.902344 L 936.117188 887.902344 L 936.117188 921.808594 L 910.285156 921.808594 Z M 910.285156 887.902344 "/></clipPath><clipPath id="82f6d21ea7"><path d="M 923.171875 921.722656 C 921.476562 921.722656 919.835938 921.390625 918.257812 920.714844 L 918.472656 920.214844 L 918.257812 920.714844 C 916.679688 920.039062 915.289062 919.078125 914.078125 917.828125 L 914.46875 917.449219 L 914.089844 917.839844 C 912.878906 916.667969 911.941406 915.277344 911.300781 913.675781 L 911.808594 913.472656 L 911.300781 913.675781 C 910.667969 912.082031 910.347656 910.410156 910.347656 908.652344 L 910.894531 908.652344 L 910.347656 908.652344 L 910.347656 887.964844 L 913.675781 887.964844 L 913.675781 908.652344 L 913.128906 908.652344 L 913.675781 908.652344 C 913.675781 909.96875 913.910156 911.226562 914.398438 912.425781 L 913.886719 912.628906 L 914.398438 912.425781 C 914.886719 913.625 915.5625 914.660156 916.441406 915.527344 C 917.355469 916.441406 918.386719 917.140625 919.550781 917.617188 C 920.714844 918.101562 921.914062 918.339844 923.171875 918.339844 L 923.171875 918.886719 L 923.171875 918.339844 C 924.46875 918.339844 925.679688 918.101562 926.84375 917.617188 C 928.007812 917.128906 929.039062 916.429688 929.941406 915.527344 C 930.820312 914.648438 931.496094 913.613281 931.984375 912.425781 L 932.496094 912.628906 L 931.984375 912.425781 C 932.46875 911.238281 932.71875 909.980469 932.71875 908.652344 L 933.265625 908.652344 L 932.71875 908.652344 L 932.71875 887.964844 L 936.042969 887.964844 L 936.042969 908.652344 L 935.5 908.652344 L 936.042969 908.652344 C 936.042969 910.410156 935.722656 912.082031 935.082031 913.675781 L 934.574219 913.472656 L 935.082031 913.675781 C 934.441406 915.265625 933.515625 916.65625 932.292969 917.839844 L 931.914062 917.449219 L 932.304688 917.828125 C 931.105469 919.066406 929.726562 920.027344 928.160156 920.703125 C 926.59375 921.378906 924.929688 921.710938 923.171875 921.710938 L 923.171875 921.167969 L 923.171875 921.710938 M 923.171875 920.621094 C 924.789062 920.621094 926.308594 920.3125 927.734375 919.695312 L 927.945312 920.191406 L 927.734375 919.695312 C 929.15625 919.078125 930.429688 918.199219 931.53125 917.058594 C 932.636719 915.988281 933.480469 914.71875 934.0625 913.269531 C 934.644531 911.808594 934.941406 910.277344 934.941406 908.652344 L 934.941406 888.511719 L 935.488281 888.511719 L 935.488281 889.058594 L 933.265625 889.058594 L 933.265625 888.511719 L 933.8125 888.511719 L 933.8125 908.652344 C 933.8125 910.113281 933.539062 911.511719 933.003906 912.832031 C 932.457031 914.148438 931.699219 915.3125 930.726562 916.285156 L 930.34375 915.894531 L 930.738281 916.273438 C 929.726562 917.285156 928.574219 918.066406 927.28125 918.601562 L 927.066406 918.101562 L 927.28125 918.601562 C 925.988281 919.148438 924.621094 919.410156 923.195312 919.410156 C 921.796875 919.410156 920.453125 919.136719 919.160156 918.601562 L 919.375 918.101562 L 919.160156 918.601562 C 917.867188 918.054688 916.714844 917.285156 915.703125 916.273438 L 916.097656 915.894531 L 915.714844 916.285156 C 914.730469 915.300781 913.972656 914.148438 913.4375 912.832031 C 912.902344 911.5 912.628906 910.113281 912.628906 908.652344 L 912.628906 888.511719 L 913.175781 888.511719 L 913.175781 889.058594 L 910.894531 889.058594 L 910.894531 888.511719 L 911.441406 888.511719 L 911.441406 908.652344 C 911.441406 910.277344 911.738281 911.808594 912.320312 913.269531 C 912.902344 914.71875 913.746094 915.988281 914.847656 917.058594 C 915.964844 918.199219 917.234375 919.078125 918.671875 919.695312 C 920.109375 920.3125 921.605469 920.621094 923.148438 920.621094 Z M 923.171875 920.621094 "/></clipPath><clipPath id="3eda911ccb"><path d="M 918.492188 632.597656 L 1070 632.597656 L 1070 830.683594 L 918.492188 830.683594 Z M 918.492188 632.597656 "/></clipPath><clipPath id="c74e01ae85"><path d="M 1055.285156 830.433594 L 932.625 648.425781 L 932.625 776.742188 C 932.625 786.535156 932.90625 794.679688 933.472656 801.183594 C 934.042969 807.6875 934.929688 812.914062 936.15625 816.871094 C 937.382812 820.832031 939.078125 823.703125 941.242188 825.488281 C 943.40625 827.273438 946.1875 828.460938 949.578125 829.019531 L 949.578125 830.433594 L 918.492188 830.433594 L 918.492188 829.019531 C 922.265625 828.449219 924.859375 826.148438 926.261719 822.097656 C 927.667969 818.050781 928.386719 811.40625 928.386719 802.171875 L 928.386719 655.207031 C 928.386719 641.074219 925.085938 634.015625 918.492188 634.015625 L 918.492188 632.597656 L 952.414062 632.597656 L 1055.285156 785.21875 L 1055.285156 686.292969 C 1055.285156 676.5 1055.007812 668.351562 1054.4375 661.847656 C 1053.871094 655.34375 1052.984375 650.121094 1051.757812 646.160156 C 1050.527344 642.199219 1048.832031 639.328125 1046.671875 637.542969 C 1044.507812 635.761719 1041.722656 634.570312 1038.332031 634.015625 L 1038.332031 632.597656 L 1069.417969 632.597656 L 1069.417969 634.015625 C 1065.648438 634.582031 1063.054688 636.886719 1061.648438 640.933594 C 1060.246094 644.984375 1059.523438 651.625 1059.523438 660.863281 L 1059.523438 830.433594 Z M 1055.285156 830.433594 "/></clipPath><clipPath id="554f5cf2de"><path d="M 959.519531 888.511719 L 961.75 888.511719 L 961.75 918.589844 L 959.519531 918.589844 Z M 959.519531 918.589844 L 979.90625 918.589844 L 979.90625 920.820312 L 959.519531 920.820312 Z M 959.519531 918.589844 "/></clipPath><clipPath id="be8368bb69"><path d="M 958.972656 887.964844 L 962.296875 887.964844 L 962.296875 889.058594 L 958.972656 889.058594 Z M 961.203125 889.058594 L 962.296875 889.058594 L 962.296875 918.042969 L 961.203125 918.042969 Z M 961.203125 918.042969 L 980.453125 918.042969 L 980.453125 919.136719 L 961.203125 919.136719 Z M 979.359375 919.136719 L 980.453125 919.136719 L 980.453125 920.277344 L 979.359375 920.277344 Z M 958.972656 889.058594 L 960.066406 889.058594 L 960.066406 920.277344 L 958.972656 920.277344 Z M 958.972656 920.277344 L 980.453125 920.277344 L 980.453125 920.820312 L 958.972656 920.820312 Z M 958.972656 920.820312 L 980.453125 920.820312 L 980.453125 921.367188 L 958.972656 921.367188 Z M 958.972656 920.820312 "/></clipPath><clipPath id="40795247c8"><path d="M 1086.375 629.773438 L 1269 629.773438 L 1269 830.578125 L 1086.375 830.578125 Z M 1086.375 629.773438 "/></clipPath><clipPath id="007fcfb53a"><path d="M 1202.253906 751.863281 L 1166.636719 663.691406 L 1131.035156 751.863281 Z M 1254.820312 813.476562 C 1257.261719 818.941406 1259.4375 822.710938 1261.324219 824.789062 C 1263.210938 826.863281 1265.652344 828.28125 1268.675781 829.027344 L 1268.675781 830.441406 L 1221.46875 830.441406 L 1221.46875 829.027344 C 1225.050781 827.898438 1227.125 825.773438 1227.695312 822.664062 C 1228.265625 819.550781 1227.503906 814.894531 1225.429688 808.667969 L 1204.226562 756.101562 L 1129.328125 756.101562 L 1112.941406 796.523438 C 1109.171875 807.074219 1107.804688 814.753906 1108.84375 819.5625 C 1109.882812 824.371094 1113.324219 827.519531 1119.15625 829.027344 L 1119.15625 830.441406 L 1086.375 830.441406 L 1086.375 829.027344 C 1089.953125 828.089844 1092.777344 826.535156 1094.851562 824.371094 C 1096.925781 822.207031 1099.175781 818.488281 1101.632812 813.210938 L 1175.960938 629.773438 L 1180.476562 629.773438 Z M 1254.820312 813.476562 "/></clipPath><clipPath id="48d2177f33"><path d="M 1001.226562 888.101562 L 1030.890625 888.101562 L 1030.890625 920.96875 L 1001.226562 920.96875 Z M 1001.226562 888.101562 "/></clipPath><clipPath id="c88c021a46"><path d="M 1016.394531 893.628906 L 1008.640625 910.386719 L 1023.804688 910.386719 Z M 1007.59375 912.628906 L 1003.761719 920.820312 L 1001.277344 920.820312 L 1016.488281 888.121094 L 1030.855469 920.835938 L 1028.421875 920.835938 L 1024.789062 912.628906 Z M 1007.59375 912.628906 "/></clipPath><clipPath id="0873d455a1"><path d="M 1000.386719 886.753906 L 1031.734375 886.753906 L 1031.734375 921.472656 L 1000.386719 921.472656 Z M 1000.386719 886.753906 "/></clipPath><clipPath id="e7a61f4ae7"><path d="M 1016.894531 893.867188 L 1009.128906 910.609375 L 1008.628906 910.386719 L 1008.628906 909.839844 L 1023.804688 909.839844 L 1023.804688 910.386719 L 1023.304688 910.609375 L 1015.894531 893.855469 L 1016.394531 893.628906 L 1016.894531 893.855469 M 1015.90625 893.394531 L 1016.417969 892.300781 L 1016.90625 893.40625 L 1024.3125 910.160156 L 1024.660156 910.929688 L 1007.785156 910.929688 L 1008.140625 910.160156 L 1015.894531 893.40625 Z M 1008.082031 912.855469 L 1004.257812 921.058594 L 1004.117188 921.378906 L 1000.421875 921.378906 L 1000.78125 920.609375 L 1016.003906 887.882812 L 1016.5 886.792969 L 1016.988281 887.894531 L 1031.355469 920.609375 L 1031.6875 921.367188 L 1028.066406 921.367188 L 1027.921875 921.046875 L 1024.289062 912.84375 L 1024.789062 912.617188 L 1024.789062 913.164062 L 1007.59375 913.164062 L 1007.59375 912.617188 L 1008.09375 912.84375 M 1007.109375 912.378906 L 1007.25 912.058594 L 1025.144531 912.058594 L 1025.289062 912.378906 L 1028.921875 920.609375 L 1028.421875 920.835938 L 1028.421875 920.277344 L 1030.855469 920.277344 L 1030.855469 920.820312 L 1030.359375 921.035156 L 1015.988281 888.335938 L 1016.488281 888.121094 L 1016.988281 888.347656 L 1001.777344 921.058594 L 1001.277344 920.835938 L 1001.277344 920.277344 L 1003.761719 920.277344 L 1003.761719 920.820312 L 1003.261719 920.597656 L 1007.085938 912.390625 Z M 1007.109375 912.378906 "/></clipPath></defs><g id="08d5b795ca"><g clip-rule="nonzero" clip-path="url(#08f319374c)"><g clip-rule="nonzero" clip-path="url(#91ef1b9035)"><path style=" stroke:none;fill-rule:nonzero;fill:#ffffff;fill-opacity:1;" d="M 345.332031 632.597656 L 483.253906 632.597656 L 483.253906 830.320312 L 345.332031 830.320312 Z M 345.332031 632.597656 "/></g></g><g clip-rule="nonzero" clip-path="url(#372dc18fb9)"><g clip-rule="nonzero" clip-path="url(#e4803f04b2)"><path style=" stroke:none;fill-rule:nonzero;fill:#ffffff;fill-opacity:1;" d="M 576.367188 882.03125 L 612.546875 882.03125 L 612.546875 928.105469 L 576.367188 928.105469 Z M 576.367188 882.03125 "/></g></g><g clip-rule="nonzero" clip-path="url(#e08a937a93)"><g clip-rule="nonzero" clip-path="url(#3cab7bd0b3)"><path style=" stroke:none;fill-rule:nonzero;fill:#ffffff;fill-opacity:1;" d="M 576.367188 882.03125 L 612.546875 882.03125 L 612.546875 928.105469 L 576.367188 928.105469 Z M 576.367188 882.03125 "/></g></g><g clip-rule="nonzero" clip-path="url(#cd07205f31)"><g clip-rule="nonzero" clip-path="url(#4a7ab5f74a)"><path style=" stroke:none;fill-rule:nonzero;fill:#ffffff;fill-opacity:1;" d="M 505.863281 632.597656 L 551.082031 632.597656 L 551.082031 830.4375 L 505.863281 830.4375 Z M 505.863281 632.597656 "/></g></g><g clip-rule="nonzero" clip-path="url(#32c4908d80)"><g clip-rule="nonzero" clip-path="url(#fc4fdf175b)"><path style=" stroke:none;fill-rule:nonzero;fill:#ffffff;fill-opacity:1;" d="M 622.898438 882.429688 L 668.578125 882.429688 L 668.578125 928.464844 L 622.898438 928.464844 Z M 622.898438 882.429688 "/></g></g><g clip-rule="nonzero" clip-path="url(#8d4a6a7b93)"><g clip-rule="nonzero" clip-path="url(#3785809eac)"><path style=" stroke:none;fill-rule:nonzero;fill:#ffffff;fill-opacity:1;" d="M 622.898438 882.429688 L 668.578125 882.429688 L 668.578125 928.464844 L 622.898438 928.464844 Z M 622.898438 882.429688 "/></g></g><g clip-rule="nonzero" clip-path="url(#a68229fc3f)"><g clip-rule="nonzero" clip-path="url(#6d1ecf6e3c)"><path style=" stroke:none;fill-rule:nonzero;fill:#ffffff;fill-opacity:1;" d="M 678.679688 882.425781 L 716.253906 882.425781 L 716.253906 928.074219 L 678.679688 928.074219 Z M 678.679688 882.425781 "/></g></g><g clip-rule="nonzero" clip-path="url(#c05704e423)"><g clip-rule="nonzero" clip-path="url(#5360789701)"><path style=" stroke:none;fill-rule:nonzero;fill:#ffffff;fill-opacity:1;" d="M 678.679688 882.425781 L 716.253906 882.425781 L 716.253906 928.074219 L 678.679688 928.074219 Z M 678.679688 882.425781 "/></g></g><g clip-rule="nonzero" clip-path="url(#78c3d79db5)"><path style=" stroke:none;fill-rule:nonzero;fill:#ffffff;fill-opacity:1;" d="M 728.34375 882.425781 L 761.695312 882.425781 L 761.695312 927.761719 L 728.34375 927.761719 Z M 728.34375 882.425781 "/></g><g clip-rule="nonzero" clip-path="url(#a176bc463e)"><path style=" stroke:none;fill-rule:nonzero;fill:#ffffff;fill-opacity:1;" d="M 728.34375 882.425781 L 761.695312 882.425781 L 761.695312 927.761719 L 728.34375 927.761719 Z M 728.34375 882.425781 "/></g><g clip-rule="nonzero" clip-path="url(#c04a142b7b)"><g clip-rule="nonzero" clip-path="url(#4c9acef455)"><path style=" stroke:none;fill-rule:nonzero;fill:#ffffff;fill-opacity:1;" d="M 561.710938 623.445312 L 907.878906 623.445312 L 907.878906 839.589844 L 561.710938 839.589844 Z M 561.710938 623.445312 "/></g></g><g clip-rule="nonzero" clip-path="url(#28fcc05bb3)"><g clip-rule="nonzero" clip-path="url(#4be83012c1)"><path style=" stroke:none;fill-rule:nonzero;fill:#ffffff;fill-opacity:1;" d="M 561.710938 623.445312 L 907.878906 623.445312 L 907.878906 839.589844 L 561.710938 839.589844 Z M 561.710938 623.445312 "/></g></g><g clip-rule="nonzero" clip-path="url(#74698d48c5)"><g clip-rule="nonzero" clip-path="url(#8f38ae194c)"><path style=" stroke:none;fill-rule:nonzero;fill:#ffffff;fill-opacity:1;" d="M 803.691406 882.03125 L 841.613281 882.03125 L 841.613281 927.359375 L 803.691406 927.359375 Z M 803.691406 882.03125 "/></g></g><g clip-rule="nonzero" clip-path="url(#a377600a1d)"><g clip-rule="nonzero" clip-path="url(#2d9c669c5f)"><path style=" stroke:none;fill-rule:nonzero;fill:#ffffff;fill-opacity:1;" d="M 803.691406 882.03125 L 841.613281 882.03125 L 841.613281 927.359375 L 803.691406 927.359375 Z M 803.691406 882.03125 "/></g></g><g clip-rule="nonzero" clip-path="url(#79f111e5d7)"><g clip-rule="nonzero" clip-path="url(#53a0702ee1)"><path style=" stroke:none;fill-rule:nonzero;fill:#ffffff;fill-opacity:1;" d="M 849.527344 881.683594 L 895.207031 881.683594 L 895.207031 927.71875 L 849.527344 927.71875 Z M 849.527344 881.683594 "/></g></g><g clip-rule="nonzero" clip-path="url(#bdf62f3adf)"><g clip-rule="nonzero" clip-path="url(#7f16e6fda1)"><path style=" stroke:none;fill-rule:nonzero;fill:#ffffff;fill-opacity:1;" d="M 849.527344 881.683594 L 895.207031 881.683594 L 895.207031 927.71875 L 849.527344 927.71875 Z M 849.527344 881.683594 "/></g></g><g clip-rule="nonzero" clip-path="url(#ab5954ea1c)"><g clip-rule="nonzero" clip-path="url(#156b9c3ad1)"><path style=" stroke:none;fill-rule:nonzero;fill:#ffffff;fill-opacity:1;" d="M 489.324219 12.8125 L 1124.675781 12.8125 L 1124.675781 566.980469 L 489.324219 566.980469 Z M 489.324219 12.8125 "/></g></g><g clip-rule="nonzero" clip-path="url(#1b1c8f37ee)"><g clip-rule="nonzero" clip-path="url(#6ed5524e6c)"><path style=" stroke:none;fill-rule:nonzero;fill:#ffffff;fill-opacity:1;" d="M 489.324219 12.8125 L 1124.675781 12.8125 L 1124.675781 566.980469 L 489.324219 566.980469 Z M 489.324219 12.8125 "/></g></g><g clip-rule="nonzero" clip-path="url(#ffd2a1f49a)"><g clip-rule="nonzero" clip-path="url(#81cd053819)"><path style=" stroke:none;fill-rule:nonzero;fill:#ffffff;fill-opacity:1;" d="M 904.414062 882.03125 L 941.988281 882.03125 L 941.988281 927.679688 L 904.414062 927.679688 Z M 904.414062 882.03125 "/></g></g><g clip-rule="nonzero" clip-path="url(#916c76cec6)"><g clip-rule="nonzero" clip-path="url(#82f6d21ea7)"><path style=" stroke:none;fill-rule:nonzero;fill:#ffffff;fill-opacity:1;" d="M 904.414062 882.03125 L 941.988281 882.03125 L 941.988281 927.679688 L 904.414062 927.679688 Z M 904.414062 882.03125 "/></g></g><g clip-rule="nonzero" clip-path="url(#3eda911ccb)"><g clip-rule="nonzero" clip-path="url(#c74e01ae85)"><path style=" stroke:none;fill-rule:nonzero;fill:#ffffff;fill-opacity:1;" d="M 918.492188 632.597656 L 1069.417969 632.597656 L 1069.417969 830.683594 L 918.492188 830.683594 Z M 918.492188 632.597656 "/></g></g><g clip-rule="nonzero" clip-path="url(#554f5cf2de)"><path style=" stroke:none;fill-rule:nonzero;fill:#ffffff;fill-opacity:1;" d="M 953.035156 882.03125 L 986.382812 882.03125 L 986.382812 927.363281 L 953.035156 927.363281 Z M 953.035156 882.03125 "/></g><g clip-rule="nonzero" clip-path="url(#be8368bb69)"><path style=" stroke:none;fill-rule:nonzero;fill:#ffffff;fill-opacity:1;" d="M 953.035156 882.03125 L 986.382812 882.03125 L 986.382812 927.363281 L 953.035156 927.363281 Z M 953.035156 882.03125 "/></g><g clip-rule="nonzero" clip-path="url(#40795247c8)"><g clip-rule="nonzero" clip-path="url(#007fcfb53a)"><path style=" stroke:none;fill-rule:nonzero;fill:#ffffff;fill-opacity:1;" d="M 1086.375 629.773438 L 1268.667969 629.773438 L 1268.667969 830.578125 L 1086.375 830.578125 Z M 1086.375 629.773438 "/></g></g><g clip-rule="nonzero" clip-path="url(#48d2177f33)"><g clip-rule="nonzero" clip-path="url(#c88c021a46)"><path style=" stroke:none;fill-rule:nonzero;fill:#ffffff;fill-opacity:1;" d="M 994.484375 880.855469 L 1037.632812 880.855469 L 1037.632812 927.371094 L 994.484375 927.371094 Z M 994.484375 880.855469 "/></g></g><g clip-rule="nonzero" clip-path="url(#0873d455a1)"><g clip-rule="nonzero" clip-path="url(#e7a61f4ae7)"><path style=" stroke:none;fill-rule:nonzero;fill:#ffffff;fill-opacity:1;" d="M 994.484375 880.855469 L 1037.632812 880.855469 L 1037.632812 927.371094 L 994.484375 927.371094 Z M 994.484375 880.855469 "/></g></g></g></svg>